<mxfile host="65bd71144e">
    <diagram id="vBgZqPu5bHFU2xajEHkk" name="Page-1">
        <mxGraphModel dx="1975" dy="1504" grid="1" gridSize="10" guides="1" tooltips="1" connect="1" arrows="1" fold="1" page="1" pageScale="1" pageWidth="2336" pageHeight="1654" math="0" shadow="0">
            <root>
                <mxCell id="0"/>
                <mxCell id="1" parent="0"/>
                <mxCell id="6" value="" style="rounded=0;whiteSpace=wrap;html=1;dashed=1;fillColor=#d5e8d4;strokeColor=#82b366;" parent="1" vertex="1">
                    <mxGeometry x="540" y="10" width="260" height="210" as="geometry"/>
                </mxCell>
                <mxCell id="2" value="Web app/ Mobile app" style="rounded=0;whiteSpace=wrap;html=1;fillColor=#f8cecc;strokeColor=#b85450;" parent="1" vertex="1">
                    <mxGeometry x="10" y="320" width="150" height="60" as="geometry"/>
                </mxCell>
                <mxCell id="3" value="API Gateway" style="triangle;whiteSpace=wrap;html=1;direction=west;fillColor=#f8cecc;strokeColor=#b85450;" parent="1" vertex="1">
                    <mxGeometry x="327" y="250" width="70" height="200" as="geometry"/>
                </mxCell>
                <mxCell id="22" style="edgeStyle=none;html=1;exitX=0.5;exitY=1;exitDx=0;exitDy=0;" parent="1" source="4" target="5" edge="1">
                    <mxGeometry relative="1" as="geometry"/>
                </mxCell>
                <mxCell id="29" style="edgeStyle=none;html=1;exitX=1;exitY=0.5;exitDx=0;exitDy=0;entryX=0.5;entryY=0;entryDx=0;entryDy=0;" parent="1" source="4" target="28" edge="1">
                    <mxGeometry relative="1" as="geometry">
                        <Array as="points">
                            <mxPoint x="990" y="70"/>
                        </Array>
                    </mxGeometry>
                </mxCell>
                <mxCell id="4" value="Customer" style="rounded=0;whiteSpace=wrap;html=1;" parent="1" vertex="1">
                    <mxGeometry x="610" y="40" width="120" height="60" as="geometry"/>
                </mxCell>
                <mxCell id="5" value="Database" style="shape=cylinder3;whiteSpace=wrap;html=1;boundedLbl=1;backgroundOutline=1;size=15;" parent="1" vertex="1">
                    <mxGeometry x="640" y="120" width="60" height="80" as="geometry"/>
                </mxCell>
                <mxCell id="7" value="" style="rounded=0;whiteSpace=wrap;html=1;dashed=1;fillColor=#dae8fc;strokeColor=#6c8ebf;" parent="1" vertex="1">
                    <mxGeometry x="540" y="245" width="260" height="210" as="geometry"/>
                </mxCell>
                <mxCell id="23" style="edgeStyle=none;html=1;exitX=0.5;exitY=1;exitDx=0;exitDy=0;" parent="1" source="8" target="9" edge="1">
                    <mxGeometry relative="1" as="geometry"/>
                </mxCell>
                <mxCell id="32" style="edgeStyle=none;html=1;exitX=1;exitY=0.5;exitDx=0;exitDy=0;entryX=0;entryY=0.5;entryDx=0;entryDy=0;" parent="1" source="8" target="28" edge="1">
                    <mxGeometry relative="1" as="geometry"/>
                </mxCell>
                <mxCell id="8" value="Products" style="rounded=0;whiteSpace=wrap;html=1;" parent="1" vertex="1">
                    <mxGeometry x="610" y="275" width="120" height="60" as="geometry"/>
                </mxCell>
                <mxCell id="9" value="Database" style="shape=cylinder3;whiteSpace=wrap;html=1;boundedLbl=1;backgroundOutline=1;size=15;" parent="1" vertex="1">
                    <mxGeometry x="640" y="355" width="60" height="80" as="geometry"/>
                </mxCell>
                <mxCell id="10" value="" style="rounded=0;whiteSpace=wrap;html=1;dashed=1;fillColor=#ffe6cc;strokeColor=#d79b00;" parent="1" vertex="1">
                    <mxGeometry x="540" y="480" width="260" height="210" as="geometry"/>
                </mxCell>
                <mxCell id="24" style="edgeStyle=none;html=1;exitX=0.5;exitY=1;exitDx=0;exitDy=0;" parent="1" source="11" target="12" edge="1">
                    <mxGeometry relative="1" as="geometry"/>
                </mxCell>
                <mxCell id="31" style="edgeStyle=none;html=1;exitX=1;exitY=0.5;exitDx=0;exitDy=0;entryX=0.5;entryY=1;entryDx=0;entryDy=0;" parent="1" source="11" target="28" edge="1">
                    <mxGeometry relative="1" as="geometry">
                        <Array as="points">
                            <mxPoint x="990" y="540"/>
                        </Array>
                    </mxGeometry>
                </mxCell>
                <mxCell id="11" value="Shopping" style="rounded=0;whiteSpace=wrap;html=1;" parent="1" vertex="1">
                    <mxGeometry x="610" y="510" width="120" height="60" as="geometry"/>
                </mxCell>
                <mxCell id="12" value="Database" style="shape=cylinder3;whiteSpace=wrap;html=1;boundedLbl=1;backgroundOutline=1;size=15;" parent="1" vertex="1">
                    <mxGeometry x="640" y="590" width="60" height="80" as="geometry"/>
                </mxCell>
                <mxCell id="15" value="" style="endArrow=classic;html=1;exitX=1;exitY=0.5;exitDx=0;exitDy=0;entryX=1;entryY=0.5;entryDx=0;entryDy=0;" parent="1" source="2" target="3" edge="1">
                    <mxGeometry relative="1" as="geometry">
                        <mxPoint x="180" y="350" as="sourcePoint"/>
                        <mxPoint x="280" y="350" as="targetPoint"/>
                    </mxGeometry>
                </mxCell>
                <mxCell id="16" value="Label" style="edgeLabel;resizable=0;html=1;;align=center;verticalAlign=middle;" parent="15" connectable="0" vertex="1">
                    <mxGeometry relative="1" as="geometry"/>
                </mxCell>
                <mxCell id="17" value="HTTP connection" style="edgeLabel;html=1;align=center;verticalAlign=middle;resizable=0;points=[];" parent="15" vertex="1" connectable="0">
                    <mxGeometry x="0.012" y="-2" relative="1" as="geometry">
                        <mxPoint x="-1" y="-3" as="offset"/>
                    </mxGeometry>
                </mxCell>
                <mxCell id="18" value="" style="endArrow=classic;html=1;exitX=0;exitY=0.75;exitDx=0;exitDy=0;entryX=0;entryY=0.5;entryDx=0;entryDy=0;" parent="1" source="3" target="4" edge="1">
                    <mxGeometry relative="1" as="geometry">
                        <mxPoint x="420" y="100" as="sourcePoint"/>
                        <mxPoint x="520" y="100" as="targetPoint"/>
                        <Array as="points">
                            <mxPoint x="440" y="300"/>
                            <mxPoint x="440" y="70"/>
                        </Array>
                    </mxGeometry>
                </mxCell>
                <mxCell id="19" value="/customer" style="edgeLabel;resizable=0;html=1;;align=center;verticalAlign=middle;" parent="18" connectable="0" vertex="1">
                    <mxGeometry relative="1" as="geometry">
                        <mxPoint y="78" as="offset"/>
                    </mxGeometry>
                </mxCell>
                <mxCell id="20" value="" style="endArrow=classic;html=1;entryX=0;entryY=0.5;entryDx=0;entryDy=0;exitX=0;exitY=0.25;exitDx=0;exitDy=0;" parent="1" source="3" target="11" edge="1">
                    <mxGeometry relative="1" as="geometry">
                        <mxPoint x="420" y="590" as="sourcePoint"/>
                        <mxPoint x="520" y="590" as="targetPoint"/>
                        <Array as="points">
                            <mxPoint x="440" y="400"/>
                            <mxPoint x="440" y="540"/>
                        </Array>
                    </mxGeometry>
                </mxCell>
                <mxCell id="21" value="/shopping" style="edgeLabel;resizable=0;html=1;;align=center;verticalAlign=middle;" parent="20" connectable="0" vertex="1">
                    <mxGeometry relative="1" as="geometry">
                        <mxPoint y="-53" as="offset"/>
                    </mxGeometry>
                </mxCell>
                <mxCell id="25" value="" style="endArrow=classic;html=1;exitX=0;exitY=0.5;exitDx=0;exitDy=0;entryX=0;entryY=0.5;entryDx=0;entryDy=0;" parent="1" source="3" target="8" edge="1">
                    <mxGeometry relative="1" as="geometry">
                        <mxPoint x="420" y="350" as="sourcePoint"/>
                        <mxPoint x="520" y="350" as="targetPoint"/>
                        <Array as="points">
                            <mxPoint x="500" y="350"/>
                            <mxPoint x="500" y="305"/>
                        </Array>
                    </mxGeometry>
                </mxCell>
                <mxCell id="26" value="/products" style="edgeLabel;resizable=0;html=1;;align=center;verticalAlign=middle;" parent="25" connectable="0" vertex="1">
                    <mxGeometry relative="1" as="geometry"/>
                </mxCell>
                <mxCell id="28" value="HTTP calls" style="rounded=0;whiteSpace=wrap;html=1;fillColor=#f8cecc;strokeColor=#b85450;" parent="1" vertex="1">
                    <mxGeometry x="949" y="125" width="80" height="360" as="geometry"/>
                </mxCell>
                <mxCell id="33" value="Microservices Architechture" style="text;html=1;align=center;verticalAlign=middle;whiteSpace=wrap;rounded=0;fontSize=18;fontStyle=1;fillColor=#fff2cc;strokeColor=#d6b656;" parent="1" vertex="1">
                    <mxGeometry x="80" y="40" width="270" height="30" as="geometry"/>
                </mxCell>
                <mxCell id="34" value="AMQP (Advanced Message Queuing Protocol)" style="text;html=1;align=center;verticalAlign=middle;whiteSpace=wrap;rounded=0;fontSize=18;fontStyle=1;fillColor=#fff2cc;strokeColor=#d6b656;" parent="1" vertex="1">
                    <mxGeometry x="1400" y="40" width="430" height="30" as="geometry"/>
                </mxCell>
                <mxCell id="35" value="Web Services Payment System" style="rounded=1;whiteSpace=wrap;html=1;fillColor=#fff2cc;strokeColor=#d6b656;" parent="1" vertex="1">
                    <mxGeometry x="1440" y="300" width="120" height="60" as="geometry"/>
                </mxCell>
                <mxCell id="36" value="&lt;font style=&quot;font-size: 14px;&quot;&gt;&lt;b&gt;Producer&lt;/b&gt;&lt;/font&gt;" style="text;html=1;align=center;verticalAlign=middle;whiteSpace=wrap;rounded=0;" parent="1" vertex="1">
                    <mxGeometry x="1470" y="270" width="60" height="30" as="geometry"/>
                </mxCell>
                <mxCell id="37" value="" style="rounded=1;whiteSpace=wrap;html=1;fillColor=#f8cecc;strokeColor=#b85450;" parent="1" vertex="1">
                    <mxGeometry x="1710" y="170" width="210" height="320" as="geometry"/>
                </mxCell>
                <mxCell id="38" value="&lt;font style=&quot;font-size: 14px;&quot;&gt;&lt;b&gt;Message Broker&lt;/b&gt;&lt;/font&gt;" style="text;html=1;align=center;verticalAlign=middle;whiteSpace=wrap;rounded=0;" parent="1" vertex="1">
                    <mxGeometry x="1752.5" y="170" width="125" height="30" as="geometry"/>
                </mxCell>
                <mxCell id="39" value="Exchange" style="rounded=1;whiteSpace=wrap;html=1;fillColor=#ffe6cc;strokeColor=#d79b00;" parent="1" vertex="1">
                    <mxGeometry x="1752.5" y="210" width="120" height="60" as="geometry"/>
                </mxCell>
                <mxCell id="40" value="Queues" style="rounded=1;whiteSpace=wrap;html=1;fillColor=#ffe6cc;strokeColor=#d79b00;" parent="1" vertex="1">
                    <mxGeometry x="1755" y="300" width="120" height="60" as="geometry"/>
                </mxCell>
                <mxCell id="41" value="Message Routing" style="rounded=1;whiteSpace=wrap;html=1;fillColor=#ffe6cc;strokeColor=#d79b00;" parent="1" vertex="1">
                    <mxGeometry x="1755" y="390" width="120" height="60" as="geometry"/>
                </mxCell>
                <mxCell id="42" value="&lt;font style=&quot;font-size: 14px;&quot;&gt;&lt;b&gt;Consumer&lt;/b&gt;&lt;/font&gt;" style="text;html=1;align=center;verticalAlign=middle;whiteSpace=wrap;rounded=0;" parent="1" vertex="1">
                    <mxGeometry x="2095" y="270" width="70" height="30" as="geometry"/>
                </mxCell>
                <mxCell id="43" value="Order Processing Notification Problem" style="rounded=1;whiteSpace=wrap;html=1;fillColor=#fff2cc;strokeColor=#d6b656;" parent="1" vertex="1">
                    <mxGeometry x="2070" y="300" width="120" height="60" as="geometry"/>
                </mxCell>
                <mxCell id="44" value="" style="endArrow=classic;html=1;exitX=1;exitY=0.5;exitDx=0;exitDy=0;entryX=0;entryY=0.5;entryDx=0;entryDy=0;" parent="1" source="35" target="37" edge="1">
                    <mxGeometry relative="1" as="geometry">
                        <mxPoint x="1580" y="330" as="sourcePoint"/>
                        <mxPoint x="1680" y="330" as="targetPoint"/>
                    </mxGeometry>
                </mxCell>
                <mxCell id="45" value="Publish" style="edgeLabel;resizable=0;html=1;;align=center;verticalAlign=middle;" parent="44" connectable="0" vertex="1">
                    <mxGeometry relative="1" as="geometry"/>
                </mxCell>
                <mxCell id="46" value="" style="endArrow=classic;html=1;exitX=1;exitY=0.5;exitDx=0;exitDy=0;entryX=0;entryY=0.5;entryDx=0;entryDy=0;" parent="1" source="37" target="43" edge="1">
                    <mxGeometry relative="1" as="geometry">
                        <mxPoint x="1940" y="330" as="sourcePoint"/>
                        <mxPoint x="2040" y="330" as="targetPoint"/>
                    </mxGeometry>
                </mxCell>
                <mxCell id="47" value="Consume" style="edgeLabel;resizable=0;html=1;;align=center;verticalAlign=middle;" parent="46" connectable="0" vertex="1">
                    <mxGeometry relative="1" as="geometry"/>
                </mxCell>
                <mxCell id="49" value="" style="sketch=0;aspect=fixed;pointerEvents=1;shadow=0;dashed=0;html=1;strokeColor=none;labelPosition=center;verticalLabelPosition=bottom;verticalAlign=top;align=center;fillColor=#00188D;shape=mxgraph.azure.queue_generic" parent="1" vertex="1">
                    <mxGeometry x="1790" y="340" width="50" height="15" as="geometry"/>
                </mxCell>
                <mxCell id="50" value="&lt;h1 style=&quot;margin-top: 0px;&quot;&gt;&lt;font style=&quot;font-size: 16px;&quot;&gt;rabbitmq&lt;/font&gt;&lt;/h1&gt;&lt;p&gt;RabbitMQ is an open-source message broker that implements the Advanced Message Queuing Protocol (AMQP)&lt;/p&gt;" style="text;html=1;whiteSpace=wrap;overflow=hidden;rounded=0;fillColor=#FFFFFF;strokeColor=#FF0000;perimeterSpacing=0;" parent="1" vertex="1">
                    <mxGeometry x="1110" y="1081" width="180" height="120" as="geometry"/>
                </mxCell>
                <mxCell id="53" value="Events/&lt;div&gt;Payload&lt;/div&gt;" style="shape=parallelogram;perimeter=parallelogramPerimeter;whiteSpace=wrap;html=1;fixedSize=1;" vertex="1" parent="1">
                    <mxGeometry x="370" y="921" width="120" height="60" as="geometry"/>
                </mxCell>
                <mxCell id="54" value="" style="group;fillColor=none;strokeColor=none;gradientColor=none;" vertex="1" connectable="0" parent="1">
                    <mxGeometry x="170" y="891" width="110" height="120" as="geometry"/>
                </mxCell>
                <mxCell id="51" value="" style="shape=hexagon;perimeter=hexagonPerimeter2;whiteSpace=wrap;html=1;fixedSize=1;size=30;rotation=90;" vertex="1" parent="54">
                    <mxGeometry x="-5" y="5" width="120" height="110" as="geometry"/>
                </mxCell>
                <mxCell id="52" value="Product Service&lt;div&gt;(Publisher)&lt;/div&gt;" style="text;html=1;align=center;verticalAlign=middle;whiteSpace=wrap;rounded=0;" vertex="1" parent="54">
                    <mxGeometry y="45" width="110" height="30" as="geometry"/>
                </mxCell>
                <mxCell id="57" value="" style="group" vertex="1" connectable="0" parent="1">
                    <mxGeometry x="882" y="890" width="110" height="120" as="geometry"/>
                </mxCell>
                <mxCell id="55" value="" style="shape=hexagon;perimeter=hexagonPerimeter2;whiteSpace=wrap;html=1;fixedSize=1;size=30;rotation=90;" vertex="1" parent="57">
                    <mxGeometry x="-5" y="5" width="120" height="110" as="geometry"/>
                </mxCell>
                <mxCell id="56" value="Customer Service&amp;nbsp;&lt;div&gt;(Subscriber)&lt;/div&gt;" style="text;html=1;align=center;verticalAlign=middle;whiteSpace=wrap;rounded=0;" vertex="1" parent="57">
                    <mxGeometry y="45" width="110" height="30" as="geometry"/>
                </mxCell>
                <mxCell id="58" value="DB" style="shape=cylinder3;whiteSpace=wrap;html=1;boundedLbl=1;backgroundOutline=1;size=15;" vertex="1" parent="1">
                    <mxGeometry x="1120" y="910" width="60" height="80" as="geometry"/>
                </mxCell>
                <mxCell id="70" style="edgeStyle=none;html=1;exitX=1;exitY=0.5;exitDx=0;exitDy=0;entryX=0;entryY=0.5;entryDx=0;entryDy=0;" edge="1" parent="1" source="59" target="60">
                    <mxGeometry relative="1" as="geometry"/>
                </mxCell>
                <mxCell id="71" style="edgeStyle=none;html=1;exitX=1;exitY=0.5;exitDx=0;exitDy=0;entryX=0;entryY=0.5;entryDx=0;entryDy=0;" edge="1" parent="1" source="59" target="61">
                    <mxGeometry relative="1" as="geometry">
                        <Array as="points">
                            <mxPoint x="830" y="1191"/>
                            <mxPoint x="830" y="1271"/>
                        </Array>
                    </mxGeometry>
                </mxCell>
                <mxCell id="59" value="Channel" style="rounded=1;whiteSpace=wrap;html=1;arcSize=50;" vertex="1" parent="1">
                    <mxGeometry x="650" y="1176" width="120" height="30" as="geometry"/>
                </mxCell>
                <mxCell id="60" value="Publish" style="shape=parallelogram;perimeter=parallelogramPerimeter;whiteSpace=wrap;html=1;fixedSize=1;" vertex="1" parent="1">
                    <mxGeometry x="889" y="1171" width="120" height="40" as="geometry"/>
                </mxCell>
                <mxCell id="61" value="Subscribe" style="shape=parallelogram;perimeter=parallelogramPerimeter;whiteSpace=wrap;html=1;fixedSize=1;" vertex="1" parent="1">
                    <mxGeometry x="890" y="1251" width="120" height="40" as="geometry"/>
                </mxCell>
                <mxCell id="64" value="" style="group" vertex="1" connectable="0" parent="1">
                    <mxGeometry x="450" y="1131" width="110" height="120" as="geometry"/>
                </mxCell>
                <mxCell id="63" value="" style="shape=hexagon;perimeter=hexagonPerimeter2;whiteSpace=wrap;html=1;fixedSize=1;size=30;rotation=90;" vertex="1" parent="64">
                    <mxGeometry x="-5" y="5" width="120" height="110" as="geometry"/>
                </mxCell>
                <mxCell id="62" value="Message Broker" style="text;html=1;align=center;verticalAlign=middle;whiteSpace=wrap;rounded=0;" vertex="1" parent="64">
                    <mxGeometry y="45" width="110" height="30" as="geometry"/>
                </mxCell>
                <mxCell id="65" value="Persist" style="shape=cylinder3;whiteSpace=wrap;html=1;boundedLbl=1;backgroundOutline=1;size=15;" vertex="1" parent="1">
                    <mxGeometry x="475" y="1306" width="60" height="80" as="geometry"/>
                </mxCell>
                <mxCell id="66" style="edgeStyle=none;html=1;exitX=1;exitY=0.5;exitDx=0;exitDy=0;entryX=0;entryY=0.5;entryDx=0;entryDy=0;" edge="1" parent="1" source="52" target="53">
                    <mxGeometry relative="1" as="geometry"/>
                </mxCell>
                <mxCell id="67" style="edgeStyle=none;html=1;exitX=1;exitY=0.5;exitDx=0;exitDy=0;entryX=0;entryY=0.5;entryDx=0;entryDy=0;entryPerimeter=0;" edge="1" parent="1" source="56" target="58">
                    <mxGeometry relative="1" as="geometry"/>
                </mxCell>
                <mxCell id="68" style="edgeStyle=none;html=1;exitX=1;exitY=0.5;exitDx=0;exitDy=0;" edge="1" parent="1" source="63" target="65">
                    <mxGeometry relative="1" as="geometry"/>
                </mxCell>
                <mxCell id="69" style="edgeStyle=none;html=1;exitX=1;exitY=0.5;exitDx=0;exitDy=0;entryX=0;entryY=0.5;entryDx=0;entryDy=0;" edge="1" parent="1" source="62" target="59">
                    <mxGeometry relative="1" as="geometry"/>
                </mxCell>
                <mxCell id="72" value="" style="endArrow=classic;html=1;exitX=0.5;exitY=1;exitDx=0;exitDy=0;entryX=0.25;entryY=0;entryDx=0;entryDy=0;" edge="1" parent="1" source="53" target="59">
                    <mxGeometry relative="1" as="geometry">
                        <mxPoint x="590" y="951" as="sourcePoint"/>
                        <mxPoint x="690" y="951" as="targetPoint"/>
                        <Array as="points">
                            <mxPoint x="430" y="1061"/>
                            <mxPoint x="680" y="1061"/>
                        </Array>
                    </mxGeometry>
                </mxCell>
                <mxCell id="73" value="Pub/Sub" style="edgeLabel;resizable=0;html=1;;align=center;verticalAlign=middle;" connectable="0" vertex="1" parent="72">
                    <mxGeometry relative="1" as="geometry"/>
                </mxCell>
                <mxCell id="74" value="" style="endArrow=classic;html=1;exitX=1;exitY=0.5;exitDx=0;exitDy=0;entryX=0.75;entryY=0;entryDx=0;entryDy=0;" edge="1" parent="1" source="55" target="59">
                    <mxGeometry relative="1" as="geometry">
                        <mxPoint x="980" y="1061" as="sourcePoint"/>
                        <mxPoint x="1080" y="1061" as="targetPoint"/>
                        <Array as="points">
                            <mxPoint x="937" y="1061"/>
                            <mxPoint x="740" y="1061"/>
                        </Array>
                    </mxGeometry>
                </mxCell>
                <mxCell id="75" value="Pub/Sub" style="edgeLabel;resizable=0;html=1;;align=center;verticalAlign=middle;" connectable="0" vertex="1" parent="74">
                    <mxGeometry relative="1" as="geometry"/>
                </mxCell>
                <mxCell id="76" value="Mobile App" style="rounded=1;whiteSpace=wrap;html=1;" vertex="1" parent="1">
                    <mxGeometry x="30" y="1810" width="120" height="60" as="geometry"/>
                </mxCell>
                <mxCell id="77" value="Rest API" style="rounded=1;whiteSpace=wrap;html=1;" vertex="1" parent="1">
                    <mxGeometry x="30" y="1984" width="120" height="60" as="geometry"/>
                </mxCell>
                <mxCell id="78" value="Nginx&lt;div&gt;reverse&lt;/div&gt;&lt;div&gt;proxy&lt;/div&gt;" style="rounded=1;whiteSpace=wrap;html=1;" vertex="1" parent="1">
                    <mxGeometry x="430" y="1752" width="60" height="350" as="geometry"/>
                </mxCell>
                <mxCell id="83" value="" style="endArrow=classic;html=1;exitX=1;exitY=0.5;exitDx=0;exitDy=0;entryX=0;entryY=0.5;entryDx=0;entryDy=0;" edge="1" parent="1" source="76" target="78">
                    <mxGeometry relative="1" as="geometry">
                        <mxPoint x="180" y="1842" as="sourcePoint"/>
                        <mxPoint x="280" y="1842" as="targetPoint"/>
                        <Array as="points">
                            <mxPoint x="280" y="1842"/>
                            <mxPoint x="280" y="1927"/>
                        </Array>
                    </mxGeometry>
                </mxCell>
                <mxCell id="84" value="http Request" style="edgeLabel;resizable=0;html=1;;align=center;verticalAlign=middle;" connectable="0" vertex="1" parent="83">
                    <mxGeometry relative="1" as="geometry">
                        <mxPoint x="-80" y="-55" as="offset"/>
                    </mxGeometry>
                </mxCell>
                <mxCell id="85" value="" style="endArrow=classic;html=1;exitX=1;exitY=0.5;exitDx=0;exitDy=0;entryX=0;entryY=0.5;entryDx=0;entryDy=0;" edge="1" parent="1" source="77" target="78">
                    <mxGeometry relative="1" as="geometry">
                        <mxPoint x="210" y="2012" as="sourcePoint"/>
                        <mxPoint x="310" y="2012" as="targetPoint"/>
                        <Array as="points">
                            <mxPoint x="280" y="2014"/>
                            <mxPoint x="280" y="1927"/>
                        </Array>
                    </mxGeometry>
                </mxCell>
                <mxCell id="86" value="REST Client" style="edgeLabel;resizable=0;html=1;;align=center;verticalAlign=middle;" connectable="0" vertex="1" parent="85">
                    <mxGeometry relative="1" as="geometry">
                        <mxPoint x="-80" y="53" as="offset"/>
                    </mxGeometry>
                </mxCell>
                <mxCell id="87" value="http://localhost:80" style="text;html=1;align=center;verticalAlign=middle;whiteSpace=wrap;rounded=0;" vertex="1" parent="1">
                    <mxGeometry x="307" y="1902" width="110" height="30" as="geometry"/>
                </mxCell>
                <mxCell id="104" style="edgeStyle=none;html=1;exitX=1;exitY=0.5;exitDx=0;exitDy=0;entryX=0;entryY=0.5;entryDx=0;entryDy=0;" edge="1" parent="1" source="88" target="98">
                    <mxGeometry relative="1" as="geometry">
                        <Array as="points">
                            <mxPoint x="810" y="1772"/>
                            <mxPoint x="810" y="1732"/>
                        </Array>
                    </mxGeometry>
                </mxCell>
                <mxCell id="105" style="edgeStyle=none;html=1;exitX=1;exitY=0.5;exitDx=0;exitDy=0;entryX=0;entryY=0.5;entryDx=0;entryDy=0;" edge="1" parent="1" source="88" target="99">
                    <mxGeometry relative="1" as="geometry">
                        <Array as="points">
                            <mxPoint x="810" y="1772"/>
                            <mxPoint x="810" y="1812"/>
                        </Array>
                    </mxGeometry>
                </mxCell>
                <mxCell id="88" value="Customer" style="rounded=1;whiteSpace=wrap;html=1;arcSize=50;" vertex="1" parent="1">
                    <mxGeometry x="670" y="1752" width="110" height="40" as="geometry"/>
                </mxCell>
                <mxCell id="106" style="edgeStyle=none;html=1;exitX=1;exitY=0.5;exitDx=0;exitDy=0;entryX=0;entryY=0.5;entryDx=0;entryDy=0;" edge="1" parent="1" source="89" target="100">
                    <mxGeometry relative="1" as="geometry">
                        <Array as="points">
                            <mxPoint x="810" y="1927"/>
                            <mxPoint x="810" y="1887"/>
                        </Array>
                    </mxGeometry>
                </mxCell>
                <mxCell id="107" style="edgeStyle=none;html=1;exitX=1;exitY=0.5;exitDx=0;exitDy=0;entryX=0;entryY=0.5;entryDx=0;entryDy=0;" edge="1" parent="1" source="89" target="101">
                    <mxGeometry relative="1" as="geometry">
                        <Array as="points">
                            <mxPoint x="810" y="1927"/>
                            <mxPoint x="810" y="1967"/>
                        </Array>
                    </mxGeometry>
                </mxCell>
                <mxCell id="89" value="Products" style="rounded=1;whiteSpace=wrap;html=1;arcSize=50;" vertex="1" parent="1">
                    <mxGeometry x="670" y="1907" width="110" height="40" as="geometry"/>
                </mxCell>
                <mxCell id="108" style="edgeStyle=none;html=1;exitX=1;exitY=0.5;exitDx=0;exitDy=0;entryX=0;entryY=0.5;entryDx=0;entryDy=0;" edge="1" parent="1" source="90" target="102">
                    <mxGeometry relative="1" as="geometry">
                        <Array as="points">
                            <mxPoint x="810" y="2082"/>
                            <mxPoint x="810" y="2042"/>
                        </Array>
                    </mxGeometry>
                </mxCell>
                <mxCell id="109" style="edgeStyle=none;html=1;exitX=1;exitY=0.5;exitDx=0;exitDy=0;entryX=0;entryY=0.5;entryDx=0;entryDy=0;" edge="1" parent="1" source="90" target="103">
                    <mxGeometry relative="1" as="geometry">
                        <Array as="points">
                            <mxPoint x="810" y="2082"/>
                            <mxPoint x="810" y="2122"/>
                        </Array>
                    </mxGeometry>
                </mxCell>
                <mxCell id="90" value="Shopping" style="rounded=1;whiteSpace=wrap;html=1;arcSize=50;" vertex="1" parent="1">
                    <mxGeometry x="670" y="2062" width="110" height="40" as="geometry"/>
                </mxCell>
                <mxCell id="91" value="" style="endArrow=classic;html=1;entryX=0;entryY=0.5;entryDx=0;entryDy=0;exitX=1;exitY=0.25;exitDx=0;exitDy=0;" edge="1" parent="1" source="78" target="88">
                    <mxGeometry relative="1" as="geometry">
                        <mxPoint x="550" y="1852" as="sourcePoint"/>
                        <mxPoint x="650" y="1852" as="targetPoint"/>
                    </mxGeometry>
                </mxCell>
                <mxCell id="92" value="/customer" style="edgeLabel;resizable=0;html=1;;align=center;verticalAlign=middle;" connectable="0" vertex="1" parent="91">
                    <mxGeometry relative="1" as="geometry"/>
                </mxCell>
                <mxCell id="93" value="" style="endArrow=classic;html=1;entryX=0;entryY=0.5;entryDx=0;entryDy=0;exitX=1;exitY=0.75;exitDx=0;exitDy=0;" edge="1" parent="1" source="78" target="90">
                    <mxGeometry relative="1" as="geometry">
                        <mxPoint x="540" y="2042" as="sourcePoint"/>
                        <mxPoint x="640" y="2042" as="targetPoint"/>
                    </mxGeometry>
                </mxCell>
                <mxCell id="94" value="/shopping" style="edgeLabel;resizable=0;html=1;;align=center;verticalAlign=middle;" connectable="0" vertex="1" parent="93">
                    <mxGeometry relative="1" as="geometry"/>
                </mxCell>
                <mxCell id="95" value="" style="endArrow=classic;html=1;exitX=1;exitY=0.5;exitDx=0;exitDy=0;entryX=0;entryY=0.5;entryDx=0;entryDy=0;" edge="1" parent="1" source="78" target="89">
                    <mxGeometry relative="1" as="geometry">
                        <mxPoint x="550" y="1922" as="sourcePoint"/>
                        <mxPoint x="650" y="1922" as="targetPoint"/>
                    </mxGeometry>
                </mxCell>
                <mxCell id="96" value="/products" style="edgeLabel;resizable=0;html=1;;align=center;verticalAlign=middle;" connectable="0" vertex="1" parent="95">
                    <mxGeometry relative="1" as="geometry"/>
                </mxCell>
                <mxCell id="115" style="edgeStyle=none;html=1;exitX=1;exitY=0.5;exitDx=0;exitDy=0;entryX=0.02;entryY=0.13;entryDx=0;entryDy=0;entryPerimeter=0;" edge="1" parent="1" source="98" target="110">
                    <mxGeometry relative="1" as="geometry">
                        <Array as="points">
                            <mxPoint x="1020" y="1732"/>
                            <mxPoint x="1020" y="1798"/>
                        </Array>
                    </mxGeometry>
                </mxCell>
                <mxCell id="98" value="Publish" style="shape=parallelogram;perimeter=parallelogramPerimeter;whiteSpace=wrap;html=1;fixedSize=1;" vertex="1" parent="1">
                    <mxGeometry x="860" y="1712" width="120" height="40" as="geometry"/>
                </mxCell>
                <mxCell id="99" value="Subscribe" style="shape=parallelogram;perimeter=parallelogramPerimeter;whiteSpace=wrap;html=1;fixedSize=1;" vertex="1" parent="1">
                    <mxGeometry x="861" y="1792" width="120" height="40" as="geometry"/>
                </mxCell>
                <mxCell id="100" value="Publish" style="shape=parallelogram;perimeter=parallelogramPerimeter;whiteSpace=wrap;html=1;fixedSize=1;" vertex="1" parent="1">
                    <mxGeometry x="861" y="1867" width="120" height="40" as="geometry"/>
                </mxCell>
                <mxCell id="101" value="Subscribe" style="shape=parallelogram;perimeter=parallelogramPerimeter;whiteSpace=wrap;html=1;fixedSize=1;" vertex="1" parent="1">
                    <mxGeometry x="862" y="1947" width="120" height="40" as="geometry"/>
                </mxCell>
                <mxCell id="102" value="Publish" style="shape=parallelogram;perimeter=parallelogramPerimeter;whiteSpace=wrap;html=1;fixedSize=1;" vertex="1" parent="1">
                    <mxGeometry x="862" y="2022" width="120" height="40" as="geometry"/>
                </mxCell>
                <mxCell id="103" value="Subscribe" style="shape=parallelogram;perimeter=parallelogramPerimeter;whiteSpace=wrap;html=1;fixedSize=1;" vertex="1" parent="1">
                    <mxGeometry x="863" y="2102" width="120" height="40" as="geometry"/>
                </mxCell>
                <mxCell id="110" value="Channel&lt;div&gt;&lt;br&gt;&lt;/div&gt;&lt;div&gt;Exchange&lt;/div&gt;&lt;div&gt;&lt;br&gt;&lt;/div&gt;&lt;div&gt;Binding&lt;/div&gt;&lt;div&gt;&lt;br&gt;&lt;/div&gt;&lt;div&gt;Topic&lt;/div&gt;" style="rounded=1;whiteSpace=wrap;html=1;" vertex="1" parent="1">
                    <mxGeometry x="1080" y="1752" width="60" height="350" as="geometry"/>
                </mxCell>
                <mxCell id="111" value="" style="group" vertex="1" connectable="0" parent="1">
                    <mxGeometry x="1226" y="1867" width="110" height="120" as="geometry"/>
                </mxCell>
                <mxCell id="112" value="" style="shape=hexagon;perimeter=hexagonPerimeter2;whiteSpace=wrap;html=1;fixedSize=1;size=30;rotation=90;" vertex="1" parent="111">
                    <mxGeometry x="-5" y="5" width="120" height="110" as="geometry"/>
                </mxCell>
                <mxCell id="113" value="Message Broker" style="text;html=1;align=center;verticalAlign=middle;whiteSpace=wrap;rounded=0;" vertex="1" parent="111">
                    <mxGeometry y="45" width="110" height="30" as="geometry"/>
                </mxCell>
                <mxCell id="114" value="Persist&lt;div&gt;Events&lt;/div&gt;" style="shape=cylinder3;whiteSpace=wrap;html=1;boundedLbl=1;backgroundOutline=1;size=15;" vertex="1" parent="1">
                    <mxGeometry x="1422" y="1887" width="60" height="80" as="geometry"/>
                </mxCell>
                <mxCell id="117" style="edgeStyle=none;html=1;entryX=-0.005;entryY=0.168;entryDx=0;entryDy=0;entryPerimeter=0;" edge="1" parent="1" source="99" target="110">
                    <mxGeometry relative="1" as="geometry">
                        <mxPoint x="1050" y="1811" as="targetPoint"/>
                    </mxGeometry>
                </mxCell>
                <mxCell id="118" style="edgeStyle=none;html=1;exitX=1;exitY=0.5;exitDx=0;exitDy=0;entryX=0.02;entryY=0.386;entryDx=0;entryDy=0;entryPerimeter=0;" edge="1" parent="1" source="100" target="110">
                    <mxGeometry relative="1" as="geometry"/>
                </mxCell>
                <mxCell id="119" style="edgeStyle=none;html=1;exitX=1;exitY=0.5;exitDx=0;exitDy=0;entryX=0.007;entryY=0.615;entryDx=0;entryDy=0;entryPerimeter=0;" edge="1" parent="1" source="101" target="110">
                    <mxGeometry relative="1" as="geometry"/>
                </mxCell>
                <mxCell id="120" style="edgeStyle=none;html=1;exitX=1;exitY=0.5;exitDx=0;exitDy=0;entryX=-0.017;entryY=0.828;entryDx=0;entryDy=0;entryPerimeter=0;" edge="1" parent="1" source="102" target="110">
                    <mxGeometry relative="1" as="geometry"/>
                </mxCell>
                <mxCell id="121" style="edgeStyle=none;html=1;exitX=1;exitY=0.5;exitDx=0;exitDy=0;entryX=0.032;entryY=0.883;entryDx=0;entryDy=0;entryPerimeter=0;" edge="1" parent="1" source="103" target="110">
                    <mxGeometry relative="1" as="geometry">
                        <Array as="points">
                            <mxPoint x="1020" y="2122"/>
                            <mxPoint x="1020" y="2062"/>
                        </Array>
                    </mxGeometry>
                </mxCell>
                <mxCell id="122" value="" style="endArrow=classic;startArrow=classic;html=1;entryX=0;entryY=0.5;entryDx=0;entryDy=0;exitX=1;exitY=0.5;exitDx=0;exitDy=0;" edge="1" parent="1" source="110" target="113">
                    <mxGeometry width="50" height="50" relative="1" as="geometry">
                        <mxPoint x="1180" y="1972" as="sourcePoint"/>
                        <mxPoint x="1230" y="1922" as="targetPoint"/>
                    </mxGeometry>
                </mxCell>
                <mxCell id="123" value="" style="endArrow=classic;startArrow=classic;html=1;entryX=0;entryY=0.5;entryDx=0;entryDy=0;entryPerimeter=0;exitX=1;exitY=0.5;exitDx=0;exitDy=0;" edge="1" parent="1" source="113" target="114">
                    <mxGeometry width="50" height="50" relative="1" as="geometry">
                        <mxPoint x="1410" y="1982" as="sourcePoint"/>
                        <mxPoint x="1460" y="1932" as="targetPoint"/>
                    </mxGeometry>
                </mxCell>
            </root>
        </mxGraphModel>
    </diagram>
</mxfile>